HIERARCHY
ROOT Hips
{
  OFFSET 5.84602e-005 68.8428 3.50346
  CHANNELS 6 Xposition Yposition Zposition Zrotation Xrotation Yrotation
  JOINT Spine
  {
    OFFSET 0 8.597 -4.6522
    CHANNELS 3 Zrotation Xrotation Yrotation
    JOINT Spine1
    {
      OFFSET 0 7.8454 0.4098
      CHANNELS 3 Zrotation Xrotation Yrotation
      JOINT Spine2
      {
        OFFSET 0 9.7078 -2.1609
        CHANNELS 3 Zrotation Xrotation Yrotation
        JOINT Neck
        {
          OFFSET 0 21.8761 -0.4549
          CHANNELS 3 Zrotation Xrotation Yrotation
          JOINT Head
          {
            OFFSET 0 12.3537 3.3602
            CHANNELS 3 Zrotation Xrotation Yrotation
            End Site
            {
              OFFSET 0.0001 18.9506 0.5657
            }
          }
        }
        JOINT LeftShoulder
        {
          OFFSET 2.2086 21.1115 7.2329
          CHANNELS 3 Zrotation Xrotation Yrotation
          JOINT LeftArm
          {
            OFFSET 13.1193 3.0282 -4.8998
            CHANNELS 3 Zrotation Xrotation Yrotation
            JOINT LeftForeArm
            {
              OFFSET 27.4081 -0.0973053 -0.2375
              CHANNELS 3 Zrotation Xrotation Yrotation
              JOINT LeftHand
              {
                OFFSET 22.8641 0.0662994 -0.1369
                CHANNELS 3 Zrotation Xrotation Yrotation
                JOINT LeftHandIndex1
                {
                  OFFSET 8.8614 0.775009 2.4612
                  CHANNELS 3 Zrotation Xrotation Yrotation
                  JOINT LeftHandIndex2
                  {
                    OFFSET 3.3146 -0.808304 0.5841
                    CHANNELS 3 Zrotation Xrotation Yrotation
                    JOINT LeftHandIndex3
                    {
                      OFFSET 2.2628 -0.552002 0.3989
                      CHANNELS 3 Zrotation Xrotation Yrotation
                      End Site
                      {
                        OFFSET 1.6102 -0.4807 0.2612
                      }
                    }
                  }
                }
                JOINT LeftHandMiddle1
                {
                  OFFSET 8.9937 0.895004 0.2143
                  CHANNELS 3 Zrotation Xrotation Yrotation
                  JOINT LeftHandMiddle2
                  {
                    OFFSET 4.0984 0.0113983 -0.0242
                    CHANNELS 3 Zrotation Xrotation Yrotation
                    JOINT LeftHandMiddle3
                    {
                      OFFSET 2.2716 0.00689697 -0.0138001
                      CHANNELS 3 Zrotation Xrotation Yrotation
                      End Site
                      {
                        OFFSET 2.0404 -0.1441 0.0027
                      }
                    }
                  }
                }
                JOINT LeftHandRing1
                {
                  OFFSET 8.5234 0.597198 -2.0164
                  CHANNELS 3 Zrotation Xrotation Yrotation
                  JOINT LeftHandRing2
                  {
                    OFFSET 3.7188 -0.188293 -0.2328
                    CHANNELS 3 Zrotation Xrotation Yrotation
                    JOINT LeftHandRing3
                    {
                      OFFSET 2.1191 -0.106598 -0.1332
                      CHANNELS 3 Zrotation Xrotation Yrotation
                      End Site
                      {
                        OFFSET 1.8737 -0.2304 -0.0886
                      }
                    }
                  }
                }
                JOINT LeftHandPinky1
                {
                  OFFSET 7.9094 -0.601089 -3.4825
                  CHANNELS 3 Zrotation Xrotation Yrotation
                  JOINT LeftHandPinky2
                  {
                    OFFSET 2.2874 -0.477005 -0.6314
                    CHANNELS 3 Zrotation Xrotation Yrotation
                    JOINT LeftHandPinky3
                    {
                      OFFSET 1.6774 -0.349396 -0.4633
                      CHANNELS 3 Zrotation Xrotation Yrotation
                      End Site
                      {
                        OFFSET 1.4888 -0.4091 -0.3416
                      }
                    }
                  }
                }
                JOINT LeftHandThumb1
                {
                  OFFSET 1.833 -1.3875 1.3896
                  CHANNELS 3 Zrotation Xrotation Yrotation
                  JOINT LeftHandThumb2
                  {
                    OFFSET 3.4129 -1.121 2.5732
                    CHANNELS 3 Zrotation Xrotation Yrotation
                    JOINT LeftHandThumb3
                    {
                      OFFSET 2.2474 -0.804199 1.6192
                      CHANNELS 3 Zrotation Xrotation Yrotation
                      End Site
                      {
                        OFFSET 1.6527 -0.5689 1.1317
                      }
                    }
                  }
                }
              }
            }
          }
        }
        JOINT RightShoulder
        {
          OFFSET -2.2086 21.1115 7.2329
          CHANNELS 3 Zrotation Xrotation Yrotation
          JOINT RightArm
          {
            OFFSET -13.1216 3.0287 -4.9007
            CHANNELS 3 Zrotation Xrotation Yrotation
            JOINT RightForeArm
            {
              OFFSET -27.4081 -0.0973053 -0.2375
              CHANNELS 3 Zrotation Xrotation Yrotation
              JOINT RightHand
              {
                OFFSET -22.8641 0.0664063 -0.1369
                CHANNELS 3 Zrotation Xrotation Yrotation
                JOINT RightHandIndex1
                {
                  OFFSET -8.8614 0.774994 2.4612
                  CHANNELS 3 Zrotation Xrotation Yrotation
                  JOINT RightHandIndex2
                  {
                    OFFSET -3.3146 -0.808304 0.5841
                    CHANNELS 3 Zrotation Xrotation Yrotation
                    JOINT RightHandIndex3
                    {
                      OFFSET -2.2628 -0.552002 0.3989
                      CHANNELS 3 Zrotation Xrotation Yrotation
                      End Site
                      {
                        OFFSET -1.6102 -0.4807 0.2612
                      }
                    }
                  }
                }
                JOINT RightHandMiddle1
                {
                  OFFSET -8.9937 0.894989 0.2143
                  CHANNELS 3 Zrotation Xrotation Yrotation
                  JOINT RightHandMiddle2
                  {
                    OFFSET -4.0984 0.0113983 -0.0242
                    CHANNELS 3 Zrotation Xrotation Yrotation
                    JOINT RightHandMiddle3
                    {
                      OFFSET -2.2716 0.00691223 -0.0138001
                      CHANNELS 3 Zrotation Xrotation Yrotation
                      End Site
                      {
                        OFFSET -2.0404 -0.1441 0.0027
                      }
                    }
                  }
                }
                JOINT RightHandRing1
                {
                  OFFSET -8.5234 0.597198 -2.0164
                  CHANNELS 3 Zrotation Xrotation Yrotation
                  JOINT RightHandRing2
                  {
                    OFFSET -3.7188 -0.188309 -0.2328
                    CHANNELS 3 Zrotation Xrotation Yrotation
                    JOINT RightHandRing3
                    {
                      OFFSET -2.1191 -0.106598 -0.1332
                      CHANNELS 3 Zrotation Xrotation Yrotation
                      End Site
                      {
                        OFFSET -1.8737 -0.2304 -0.0886
                      }
                    }
                  }
                }
                JOINT RightHandPinky1
                {
                  OFFSET -7.9094 -0.601105 -3.4825
                  CHANNELS 3 Zrotation Xrotation Yrotation
                  JOINT RightHandPinky2
                  {
                    OFFSET -2.2874 -0.477005 -0.6314
                    CHANNELS 3 Zrotation Xrotation Yrotation
                    JOINT RightHandPinky3
                    {
                      OFFSET -1.6774 -0.349396 -0.4633
                      CHANNELS 3 Zrotation Xrotation Yrotation
                      End Site
                      {
                        OFFSET -1.4888 -0.4091 -0.3416
                      }
                    }
                  }
                }
                JOINT RightHandThumb1
                {
                  OFFSET -1.833 -1.38751 1.3896
                  CHANNELS 3 Zrotation Xrotation Yrotation
                  JOINT RightHandThumb2
                  {
                    OFFSET -3.41299 -1.12099 2.5732
                    CHANNELS 3 Zrotation Xrotation Yrotation
                    JOINT RightHandThumb3
                    {
                      OFFSET -2.24741 -0.804108 1.6192
                      CHANNELS 3 Zrotation Xrotation Yrotation
                      End Site
                      {
                        OFFSET -1.6527 -0.5689 1.1317
                      }
                    }
                  }
                }
              }
            }
          }
        }
      }
    }
  }
  JOINT RightUpLeg
  {
    OFFSET -9.1966 3.8861 -0.7581
    CHANNELS 3 Zrotation Xrotation Yrotation
    JOINT RightLeg
    {
      OFFSET -0.7359 -41.0265 0
      CHANNELS 3 Zrotation Xrotation Yrotation
      JOINT RightFoot
      {
        OFFSET 0 -40.2855 0
        CHANNELS 3 Zrotation Xrotation Yrotation
        JOINT RightToeBase
        {
          OFFSET 0 -5.6122 11.7359
          CHANNELS 3 Zrotation Xrotation Yrotation
          End Site
          {
            OFFSET 0 0 7.8731
          }
        }
      }
    }
  }
  JOINT LeftUpLeg
  {
    OFFSET 9.1965 3.8864 -0.7581
    CHANNELS 3 Zrotation Xrotation Yrotation
    JOINT LeftLeg
    {
      OFFSET 0.7359 -41.0268 0
      CHANNELS 3 Zrotation Xrotation Yrotation
      JOINT LeftFoot
      {
        OFFSET 0 -40.2855 0
        CHANNELS 3 Zrotation Xrotation Yrotation
        JOINT LeftToeBase
        {
          OFFSET 0 -5.6122 11.7359
          CHANNELS 3 Zrotation Xrotation Yrotation
          End Site
          {
            OFFSET 0 0 7.8731
          }
        }
      }
    }
  }
}
MOTION
Frames:	5
Frame Time:	0.0333333
5.84602e-005 68.8428 3.50346 0 0 -0 0 0 -0 0 0 -0 0 0 -0 0 0 -0 0 0 -0 0 0 -0 0 0 -0 0 0 -0 0 0 -0 0 0 -0 0 0 -0 0 0 -0 0 0 -0 -0.0146107 -8.87603e-005 -2.63497e-007 2.99804e-018 -2.42657e-020 -1.42182e-022 0 0 -0 -0.0187562 -0.001176 5.858e-005 5.06224e-018 3.88251e-019 1.21329e-020 0 0 -0 -0.012269 -0.00324817 0.000675346 -1.74678e-018 3.88251e-019 -0 0 0 -0 0 0 -0 0 0 -0 0 0 -0 0 0 -0 0 0 -0 0 0 -0 0 0 -0 0 0 -0 0 0 -0 0 0 -0 0.0149955 -9.10982e-005 2.64101e-007 -9.69331e-018 1.21329e-020 -4.7394e-023 0 0 -0 0.0189956 -0.00119102 -5.96516e-005 -5.41541e-019 0 2.42657e-020 0 0 -0 0.0122698 -0.00324857 -0.000673756 -2.00796e-019 0 -1.94126e-019 0 0 -0 0 0 -0 0 0 -0 3.39842 1.33031 -0.0637918 -5.65207e-008 0.834868 -0.000436188 -3.39935 -2.16518 -0.0642563 -8.89002e-024 -1.18485e-023 -1.48106e-024 -3.39844 1.35642 0.0640283 -3.18788e-007 0.782166 -0.000588827 3.39931 -2.13858 0.0634662 1.1399e-023 0 -0 
-2.34524e-005 17.4811 10.0014 -5.13617e-015 15.0032 180 0.0195143 -6.35512 -0.086944 0.0295304 -12.7103 -0.17331 0.0295304 -12.7103 -0.17331 1.53672e-006 -0.229206 -1.03789e-007 -1.10468e-008 -0.473856 6.8708e-008 -8.00266 -0.194465 -0.00133307 -70.3677 -0.253149 55.9987 -4.86784e-007 -6.50001e-007 -8.00265 -7.00033 2.55058e-006 3.63644e-007 4.23955e-008 -5.96792e-007 6.07261e-007 4.23955e-008 -5.96792e-007 6.07261e-007 8.70747e-008 -5.91558e-007 1.20929e-006 4.23955e-008 -5.96792e-007 6.07261e-007 -0.0146025 -8.86421e-005 -3.90909e-007 8.70819e-008 -5.91712e-007 1.20921e-006 4.23955e-008 -5.96792e-007 6.07261e-007 -0.0187334 -0.00117569 5.96666e-005 8.70948e-008 -5.91755e-007 1.20919e-006 4.23955e-008 -5.96792e-007 6.07261e-007 -0.0122974 -0.00325611 0.000680868 8.71108e-008 -5.91687e-007 1.20922e-006 4.23955e-008 -5.96792e-007 6.07261e-007 4.23955e-008 -5.96792e-007 6.07261e-007 8.70747e-008 -5.91558e-007 1.20929e-006 7.99915 -0.194706 -0.00216115 70.3639 -0.253403 -56.0019 -4.10296e-007 1.03852e-006 7.99914 6.99683 -7.95797e-007 -2.94645e-008 4.79771e-008 -1.82509e-009 6.01791e-007 -5.05806e-008 6.03616e-007 -5.99966e-007 -8.23852e-008 4.37774e-007 -6.39797e-007 4.79771e-008 -1.82509e-009 6.01791e-007 0.0150103 -9.12704e-005 -1.42066e-006 -8.11123e-008 4.37683e-007 -6.39854e-007 4.79771e-008 -1.82509e-009 6.01791e-007 0.0190027 -0.00119092 -5.94595e-005 -4.79838e-008 1.72529e-009 -6.01791e-007 4.79771e-008 -1.82509e-009 6.01791e-007 0.0122954 -0.00325519 -0.000679705 -4.79945e-008 1.7603e-009 -6.0179e-007 4.79771e-008 -1.82509e-009 6.01791e-007 -5.05806e-008 6.03616e-007 -5.99966e-007 -8.23852e-008 4.37774e-007 -6.39797e-007 -37.5278 -21.0728 -31.2969 -144.803 39.5357 159.35 -11.0599 62.4437 -8.30002 2.38542e-015 0 3.18055e-015 37.5234 -21.0747 31.2925 144.802 39.5349 -159.353 11.0583 62.4436 8.29674 -1.82596e-006 2.80283e-007 -4.75983e-007 
-1.76955e-005 17.3856 9.95465 -5.07815e-015 15.4443 180 0.0195144 -6.35515 -0.0869438 0.0295304 -12.7103 -0.17331 0.0295304 -12.7103 -0.17331 0.0289522 -0.285863 0.00260298 -1.15809e-008 -0.939212 6.83317e-008 -6.83572 0.290644 -1.25744 -70.9813 -1.01545 56.6854 -1.67172 0.183513 -9.42873 -6.16199 0.075419 1.17433 -3.10601e-016 -1.59028e-015 -0 -2.85753e-016 -3.18055e-015 9.93923e-017 -2.85753e-016 -3.18055e-015 -9.93923e-017 -3.10601e-016 -1.59028e-015 -0 -0.0145971 -8.93826e-005 -1.01672e-006 1.61513e-016 3.18055e-015 -0 -3.10601e-016 -1.59028e-015 -0 -0.0187572 -0.0011756 5.93725e-005 3.85145e-016 1.59028e-015 -0 -3.10601e-016 -1.59028e-015 -0 -0.0122645 -0.00324901 0.000675454 -2.60905e-016 -1.59028e-015 -0 -3.10601e-016 -1.59028e-015 -0 -2.85753e-016 -3.18055e-015 9.93923e-017 -2.85753e-016 -3.18055e-015 -9.93923e-017 6.82891 0.297862 1.25547 70.9761 -1.01367 -56.6866 1.69716 0.188195 9.42474 6.13498 0.0726137 -1.17008 4.76698e-008 -1.27362e-009 6.01816e-007 5.0436e-008 -6.0309e-007 6.00543e-007 4.76698e-008 -1.27359e-009 6.01816e-007 4.76698e-008 -1.27362e-009 6.01816e-007 0.015005 -9.07968e-005 9.47181e-007 7.2307e-008 -4.42099e-007 6.43588e-007 4.76698e-008 -1.27362e-009 6.01816e-007 0.019012 -0.00119273 -5.87598e-005 4.76765e-008 -1.17372e-009 6.01816e-007 4.76698e-008 -1.27362e-009 6.01816e-007 0.012277 -0.00324944 -0.000675012 4.76871e-008 -1.20889e-009 6.01815e-007 4.76698e-008 -1.27362e-009 6.01816e-007 5.0436e-008 -6.0309e-007 6.00543e-007 4.76698e-008 -1.27359e-009 6.01816e-007 -37.8957 -20.758 -31.2559 -144.796 39.541 159.346 -11.9536 62.4422 -7.69154 1.19681e-006 -1.46705e-006 8.21123e-007 37.8912 -20.7598 31.2504 144.794 39.5401 -159.349 11.9507 62.4413 7.69009 6.78916e-007 -6.51683e-007 7.4138e-007 
-1.27097e-005 17.2908 9.90791 -5.01947e-015 15.8885 180 0.0195144 -6.3551 -0.086944 0.0295304 -12.7103 -0.17331 0.0295304 -12.7103 -0.17331 0.0579048 -0.342472 0.0052359 1.8931e-008 -1.4051 5.21701e-008 -5.65367 0.751704 -2.52827 -71.5868 -1.78607 57.365 -3.34728 0.409805 -10.8564 -5.32317 0.168257 2.35047 -4.41655e-008 -4.14436e-009 -6.02072e-007 -4.41655e-008 -4.14433e-009 -6.02072e-007 -4.41656e-008 -4.14441e-009 -6.02072e-007 -4.41655e-008 -4.14436e-009 -6.02072e-007 -0.0146016 -8.91543e-005 -1.86843e-006 -4.41663e-008 -4.06765e-009 -6.02072e-007 -4.41655e-008 -4.14436e-009 -6.02072e-007 -0.0187859 -0.00117762 5.81667e-005 -4.41721e-008 -4.04568e-009 -6.02072e-007 -4.41655e-008 -4.14436e-009 -6.02072e-007 -0.0122646 -0.00324558 0.000678016 -4.41829e-008 -4.07973e-009 -6.02071e-007 -4.41655e-008 -4.14436e-009 -6.02072e-007 -4.41655e-008 -4.14433e-009 -6.02072e-007 -4.41656e-008 -4.14441e-009 -6.02072e-007 5.64332 0.766322 2.52806 71.5802 -1.78212 -57.3642 3.39833 0.419832 10.8519 5.27253 0.16306 -2.34201 -1.46293e-008 -1.57163e-007 -4.49672e-008 -4.45809e-008 -6.01099e-007 -6.02571e-007 2.85644e-009 -6.01835e-007 -7.35802e-010 -1.46293e-008 -1.57163e-007 -4.49672e-008 0.01499 -9.15671e-005 1.71983e-007 2.85023e-009 -6.01835e-007 -6.57076e-010 -1.46293e-008 -1.57163e-007 -4.49672e-008 0.0189825 -0.00119042 -6.04006e-005 2.84889e-009 -6.01835e-007 -6.3611e-010 -1.46293e-008 -1.57163e-007 -4.49672e-008 0.0122384 -0.00323819 -0.000677873 2.85491e-009 -6.01834e-007 -6.71325e-010 -1.46293e-008 -1.57163e-007 -4.49672e-008 -4.45809e-008 -6.01099e-007 -6.02571e-007 2.85644e-009 -6.01835e-007 -7.35802e-010 -38.2631 -20.4437 -31.2127 -144.788 39.5461 159.342 -12.8471 62.4362 -7.08329 -2.67231e-006 1.35469e-006 3.57182e-007 38.2585 -20.4453 31.206 144.786 39.5455 -159.346 12.8429 62.4347 7.08353 1.76281e-007 -8.57723e-008 8.251e-007 
-6.21733e-006 17.1964 9.86145 -4.96051e-015 16.3328 180 0.0195143 -6.35514 -0.0869442 0.0295304 -12.7103 -0.17331 0.0295304 -12.7103 -0.17331 0.0868639 -0.399158 0.00789745 5.29029e-009 -1.87149 -8.39374e-008 -4.45737 1.18784 -3.81297 -72.184 -2.5646 58.0376 -5.02435 0.678987 -12.2835 -4.48455 0.278551 3.52779 4.40182e-008 3.62393e-009 6.02086e-007 -2.56096e-009 -6.02086e-007 3.62392e-009 2.56096e-009 6.02086e-007 -3.62392e-009 4.40182e-008 3.62393e-009 6.02086e-007 -0.0145866 -8.95667e-005 -2.47569e-007 2.55537e-009 6.02086e-007 -3.54728e-009 4.40182e-008 3.62393e-009 6.02086e-007 -0.0187226 -0.00117481 5.78895e-005 2.55405e-009 6.02086e-007 -3.52556e-009 4.40182e-008 3.62393e-009 6.02086e-007 -0.0122841 -0.00325397 0.000676732 2.55972e-009 6.02085e-007 -3.55919e-009 4.40182e-008 3.62393e-009 6.02086e-007 -2.56096e-009 -6.02086e-007 3.62392e-009 2.56096e-009 6.02086e-007 -3.62392e-009 4.44328 1.20977 3.81474 72.176 -2.55849 -58.0347 5.10114 0.69503 12.2782 4.41011 0.271389 -3.51513 9.45593e-008 -4.30062e-010 1.2037e-006 4.43935e-008 6.01633e-007 6.02063e-007 5.01657e-008 -6.02063e-007 6.01633e-007 9.45593e-008 -4.30062e-010 1.2037e-006 0.0150139 -9.02392e-005 4.7534e-007 5.01604e-008 -6.01984e-007 6.01712e-007 9.45593e-008 -4.30062e-010 1.2037e-006 0.0190015 -0.00119149 -6.01469e-005 5.01649e-008 -6.01963e-007 6.01732e-007 9.45593e-008 -4.30062e-010 1.2037e-006 0.0122822 -0.0032497 -0.000677127 5.01816e-008 -6.01997e-007 6.01696e-007 9.45593e-008 -4.30062e-010 1.2037e-006 4.43935e-008 6.01633e-007 6.02063e-007 5.01657e-008 -6.02063e-007 6.01633e-007 -38.63 -20.1296 -31.1672 -144.781 39.5513 159.338 -13.7402 62.426 -6.47536 6.47845e-007 1.30411e-008 -1.00188e-006 38.6252 -20.1311 31.1595 144.779 39.5507 -159.342 13.7346 62.4238 6.47745 2.81005e-006 -1.62669e-007 2.56152e-007 
